<svg width="25" height="25" viewBox="0 0 25 25" fill="none" xmlns="http://www.w3.org/2000/svg">
<path fill-rule="evenodd" clip-rule="evenodd" d="M6 9.29167C6 5.26042 9.26042 2 13.2917 2C17.3229 2 20.5833 5.26042 20.5833 9.29167C20.5833 13.6354 15.9792 19.625 14.0938 21.9062C13.6771 22.4062 12.9167 22.4062 12.5 21.9062C10.6042 19.625 6 13.6354 6 9.29167ZM10.6875 9.29167C10.6875 10.7292 11.8542 11.8958 13.2917 11.8958C14.7292 11.8958 15.8958 10.7292 15.8958 9.29167C15.8958 7.85417 14.7292 6.6875 13.2917 6.6875C11.8542 6.6875 10.6875 7.85417 10.6875 9.29167Z" fill="black" fill-opacity="0.8"/>
</svg>
