<svg width="24" height="24" viewBox="0 0 24 24" fill="none" xmlns="http://www.w3.org/2000/svg">
<g id="icon/action/account_balance_24px">
<path id="icon/action/account_balance_24px_2" fill-rule="evenodd" clip-rule="evenodd" d="M3.17004 6.02125L11.0699 1.86127C11.65 1.55125 12.35 1.55125 12.9301 1.86127L20.83 6.02125C21.24 6.23127 21.5 6.66126 21.5 7.12125C21.5 7.81126 20.9399 8.37125 20.26 8.37125H3.75C3.06006 8.37125 2.5 7.81126 2.5 7.12125C2.5 6.66126 2.76001 6.23127 3.17004 6.02125ZM4.5 11.8713V15.8713C4.5 16.7012 5.17004 17.3713 6 17.3713C6.82996 17.3713 7.5 16.7012 7.5 15.8713V11.8713C7.5 11.0413 6.82996 10.3713 6 10.3713C5.17004 10.3713 4.5 11.0413 4.5 11.8713ZM10.5 11.8713V15.8713C10.5 16.7012 11.17 17.3713 12 17.3713C12.83 17.3713 13.5 16.7012 13.5 15.8713V11.8713C13.5 11.0413 12.83 10.3713 12 10.3713C11.17 10.3713 10.5 11.0413 10.5 11.8713ZM21.5 20.8713C21.5 21.7012 20.83 22.3713 20 22.3713H4C3.17004 22.3713 2.5 21.7012 2.5 20.8713C2.5 20.0413 3.17004 19.3713 4 19.3713H20C20.83 19.3713 21.5 20.0413 21.5 20.8713ZM16.5 11.8713V15.8713C16.5 16.7012 17.17 17.3713 18 17.3713C18.83 17.3713 19.5 16.7012 19.5 15.8713V11.8713C19.5 11.0413 18.83 10.3713 18 10.3713C17.17 10.3713 16.5 11.0413 16.5 11.8713Z" fill="black" fill-opacity="0.54"/>
</g>
</svg>
