<svg width="24" height="24" viewBox="0 0 24 24" fill="none" xmlns="http://www.w3.org/2000/svg">
<g id="icon/social/people_24px">
<path id="icon/social/people_24px_2" fill-rule="evenodd" clip-rule="evenodd" d="M10.99 8C10.99 9.65997 9.66003 11 8 11C6.33997 11 5 9.65997 5 8C5 6.34003 6.33997 5 8 5C9.66003 5 10.99 6.34003 10.99 8ZM18.99 8C18.99 9.65997 17.66 11 16 11C14.34 11 13 9.65997 13 8C13 6.34003 14.34 5 16 5C17.66 5 18.99 6.34003 18.99 8ZM8 13C5.67004 13 1 14.17 1 16.5V18C1 18.55 1.44995 19 2 19H14C14.55 19 15 18.55 15 18V16.5C15 14.17 10.33 13 8 13ZM15.03 13.05C15.38 13.02 15.7101 13 16 13C18.3301 13 23 14.17 23 16.5V18C23 18.55 22.55 19 22 19H16.8201C16.9301 18.69 17 18.35 17 18V16.5C17 15.03 16.2101 13.92 15.0701 13.09C15.067 13.087 15.064 13.0831 15.0607 13.0787C15.0531 13.0688 15.0439 13.0569 15.03 13.05Z" fill="black" fill-opacity="0.54"/>
</g>
</svg>
